<svg width="512" height="512" viewBox="0 0 512 512" fill="none" xmlns="http://www.w3.org/2000/svg">
<g clip-path="url(#clip0_1_2)">
<path fill-rule="evenodd" clip-rule="evenodd" d="M511.651 81.5863C511.651 70.9049 509.548 60.3281 505.46 50.4597C501.373 40.5913 495.381 31.6247 487.828 24.0718C480.276 16.5189 471.309 10.5277 461.441 6.44019C451.572 2.35271 440.995 0.249034 430.314 0.249286H81.5863C70.9049 0.249034 60.3281 2.35271 50.4597 6.44019C40.5913 10.5277 31.6247 16.5189 24.0718 24.0718C16.5189 31.6247 10.5277 40.5913 6.44019 50.4597C2.35271 60.3281 0.249034 70.9049 0.249286 81.5863V430.314C0.249034 440.995 2.35271 451.572 6.44019 461.441C10.5277 471.309 16.5189 480.276 24.0718 487.828C31.6247 495.381 40.5913 501.373 50.4597 505.46C60.3281 509.548 70.9049 511.651 81.5863 511.651H430.314C440.995 511.651 451.572 509.548 461.441 505.46C471.309 501.373 480.276 495.381 487.828 487.828C495.381 480.276 501.373 471.309 505.46 461.441C509.548 451.572 511.651 440.995 511.651 430.314V81.5863Z" fill="#0052A4"/>
<path fill-rule="evenodd" clip-rule="evenodd" d="M487.679 97.5676C487.679 78.1149 479.954 59.4584 466.202 45.7003C452.444 31.9469 433.786 24.2209 414.333 24.2212H97.5676C78.1149 24.2209 59.4584 31.9462 45.7003 45.6984C31.9462 59.4563 24.2195 78.1137 24.2193 97.5676V414.333C24.219 433.785 31.9443 452.442 45.6965 466.2C59.4547 479.953 78.1121 487.679 97.5657 487.679H414.331C433.783 487.679 452.44 479.954 466.198 466.202C479.951 452.444 487.677 433.786 487.677 414.333L487.679 97.5676ZM471.698 97.5676V414.333C471.698 429.547 465.657 444.138 454.894 454.894C449.568 460.222 443.245 464.449 436.285 467.332C429.326 470.215 421.866 471.699 414.333 471.698H97.5676C90.0343 471.699 82.5746 470.215 75.6149 467.332C68.6552 464.449 62.3319 460.222 57.0065 454.894C51.6782 449.568 47.4516 443.245 44.5682 436.285C41.6849 429.326 40.2014 421.866 40.2025 414.333V97.5676C40.2025 82.3534 46.243 67.7623 57.0065 57.0065C62.3319 51.6782 68.6552 47.4516 75.6149 44.5682C82.5746 41.6849 90.0343 40.2014 97.5676 40.2025H414.333C429.547 40.2025 444.138 46.243 454.894 57.0065C460.222 62.3319 464.449 68.6552 467.332 75.6149C470.215 82.5746 471.699 90.0343 471.698 97.5676ZM160.062 120.109V421.756H208.006V311.885H255.95C268.542 311.886 281.011 309.406 292.645 304.587C304.278 299.768 314.848 292.703 323.751 283.798C332.656 274.895 339.721 264.325 344.54 252.692C349.359 241.058 351.839 228.589 351.838 215.997C351.838 163.042 308.903 120.109 255.95 120.109H160.062ZM208.006 263.941H255.95C268.664 263.941 280.858 258.89 289.853 249.902C298.842 240.908 303.893 228.713 303.894 215.997C303.894 189.515 282.43 168.053 255.95 168.053H208.006V263.941Z" fill="white"/>
</g>
<defs>
<clipPath id="clip0_1_2">
<rect width="512" height="512" fill="white"/>
</clipPath>
</defs>
</svg>
